<svg width="24" height="20" viewBox="0 0 24 20" fill="none" xmlns="http://www.w3.org/2000/svg">
<g id="twitter logo">
<path id="Vector" d="M23.8261 2.36856C22.9708 2.74375 22.0594 2.99244 21.1092 3.11319C22.0867 2.52956 22.8328 1.61244 23.1835 0.507C22.2722 1.05037 21.2659 1.43419 20.1935 1.64838C19.3281 0.726938 18.0948 0.15625 16.7493 0.15625C14.1388 0.15625 12.0372 2.27513 12.0372 4.87269C12.0372 5.24644 12.0688 5.60581 12.1464 5.94794C8.22634 5.75675 4.75765 3.87794 2.42746 1.01588C2.02065 1.72169 1.78203 2.52956 1.78203 3.39925C1.78203 5.03225 2.62296 6.47981 3.87646 7.31787C3.1189 7.3035 2.37571 7.08356 1.74609 6.73712C1.74609 6.7515 1.74609 6.77019 1.74609 6.78887C1.74609 9.08025 3.38053 10.9835 5.52384 11.4219C5.14003 11.5269 4.72171 11.5772 4.28759 11.5772C3.98571 11.5772 3.68096 11.5599 3.3949 11.4967C4.00584 13.364 5.73946 14.7368 7.80084 14.7814C6.19659 16.0363 4.15965 16.7924 1.95453 16.7924C1.56784 16.7924 1.19696 16.7752 0.826088 16.7277C2.91478 18.0747 5.39015 18.8438 8.05959 18.8438C16.7363 18.8438 21.4801 11.6562 21.4801 5.42613C21.4801 5.21769 21.4729 5.01644 21.4628 4.81663C22.3987 4.1525 23.185 3.32306 23.8261 2.36856Z" fill="white"/>
</g>
</svg>
